<?xml version="1.0" encoding="utf-8"?>
<!-- Generator: Adobe Illustrator 23.0.4, SVG Export Plug-In . SVG Version: 6.00 Build 0)  -->
<svg version="1.1" id="Layer_1" xmlns="http://www.w3.org/2000/svg" xmlns:xlink="http://www.w3.org/1999/xlink" x="0px" y="0px"
	 viewBox="0 0 32 32" style="enable-background:new 0 0 32 32;" xml:space="preserve">
<style type="text/css">
	.st0{fill:#008AD0;}
	.st1{fill:#333333;}
</style>
<g>
	<path class="st1" d="M3,30c-0.26,0-0.516-0.102-0.706-0.292c-0.283-0.283-0.371-0.707-0.223-1.078
		c0.015-0.036,1.391-3.508,2.324-7.035C2.201,19.452,1,16.776,1,14C1,7.383,7.729,2,16,2s15,5.383,15,12s-6.729,12-15,12
		c-1.742,0-3.45-0.239-5.084-0.71c-2.039,1.626-5.12,3.668-7.545,4.639C3.251,29.977,3.125,30,3,30z M16,4C8.832,4,3,8.486,3,14
		c0,2.383,1.128,4.699,3.177,6.521c0.277,0.247,0.396,0.629,0.305,0.989c-0.501,2.005-1.155,4.011-1.676,5.494
		c1.863-1.045,3.866-2.446,5.255-3.597c0.263-0.22,0.618-0.287,0.944-0.183C12.599,23.739,14.278,24,16,24c7.168,0,13-4.486,13-10
		S23.168,4,16,4z"/>
</g>
<g>
	<g>
		<path class="st0" d="M10,17c-0.553,0-1-0.447-1-1v-3c0-2.11,0-5,4-5c0.553,0,1,0.447,1,1s-0.447,1-1,1c-1.921,0-2,0.622-2,3v3
			C11,16.553,10.553,17,10,17z"/>
	</g>
	<g>
		<path class="st0" d="M13,19h-2c-1.103,0-2-0.897-2-2v-2c0-1.103,0.897-2,2-2h2c1.103,0,2,0.897,2,2v2C15,18.103,14.103,19,13,19z
			 M11,15v2h2v-2H11z"/>
	</g>
	<g>
		<path class="st0" d="M18,17c-0.553,0-1-0.447-1-1v-3c0-2.11,0-5,4-5c0.553,0,1,0.447,1,1s-0.447,1-1,1c-1.921,0-2,0.622-2,3v3
			C19,16.553,18.553,17,18,17z"/>
	</g>
	<g>
		<path class="st0" d="M21,19h-2c-1.103,0-2-0.897-2-2v-2c0-1.103,0.897-2,2-2h2c1.103,0,2,0.897,2,2v2C23,18.103,22.103,19,21,19z
			 M19,15v2h2v-2H19z"/>
	</g>
</g>
</svg>
